<?xml version="1.0" standalone="no"?>
<!DOCTYPE svg PUBLIC "-//W3C//DTD SVG 20010904//EN"
 "http://www.w3.org/TR/2001/REC-SVG-20010904/DTD/svg10.dtd">
<svg version="1.0" xmlns="http://www.w3.org/2000/svg"
 width="400.000000pt" height="400.000000pt" viewBox="0 0 400.000000 400.000000"
 preserveAspectRatio="xMidYMid meet">

<g transform="translate(0.000000,400.000000) scale(0.100000,-0.100000)"
fill="#000000" stroke="none">
<path d="M186 3984 c-34 -11 -64 -31 -102 -68 -92 -92 -84 79 -84 -1916 0
-1995 -8 -1824 84 -1916 92 -92 -79 -84 1916 -84 1995 0 1824 -8 1916 84 92
92 84 -79 84 1916 0 1995 8 1824 -84 1916 -92 92 80 84 -1920 83 -1536 0
-1767 -2 -1810 -15z m2448 -389 c9 -26 -5 -45 -34 -45 -29 0 -43 19 -34 45 4
8 18 15 34 15 16 0 30 -7 34 -15z m-1930 -5 c47 -17 21 -35 -50 -35 -78 0 -94
-14 -94 -82 l0 -43 60 0 c47 0 60 -3 60 -15 0 -12 -13 -15 -60 -15 l-60 0 0
-135 0 -135 -25 0 -24 0 -3 133 -3 132 -42 3 c-29 2 -43 8 -43 18 0 10 12 14
45 14 l45 0 0 49 c0 34 6 56 21 75 31 40 117 58 173 36z m1476 -90 l0 -40 60
0 c47 0 60 -3 60 -15 0 -12 -13 -15 -60 -15 l-60 0 0 -95 c0 -94 0 -94 -22
-86 -21 7 -23 16 -28 92 l-5 84 -42 3 c-29 2 -43 8 -43 17 0 9 14 15 43 17 41
3 42 4 45 41 3 32 7 37 28 37 21 0 24 -4 24 -40z m-286 -51 c28 -13 30 -17 17
-37 -7 -11 -17 -11 -56 2 -94 32 -155 -17 -155 -125 0 -41 5 -63 20 -82 17
-22 18 -26 5 -37 -54 -45 -101 126 -59 215 35 74 140 104 228 64z m1194 -5
c42 -27 62 -74 62 -142 0 -118 -48 -172 -152 -172 -50 0 -62 4 -92 31 -91 80
-61 264 50 299 37 12 102 4 132 -16z m-1988 -149 c0 -155 -1 -165 -19 -165
-10 0 -21 9 -24 20 -5 20 -6 20 -43 -5 -50 -34 -115 -35 -149 0 -24 23 -25 29
-25 165 l0 140 25 0 25 0 0 -129 c0 -108 3 -132 17 -146 22 -23 87 -14 119 16
23 21 24 29 24 146 l0 123 25 0 25 0 0 -165z m190 140 l0 -24 36 24 c39 27
109 34 144 15 29 -15 40 -72 40 -202 l0 -118 -24 0 -24 0 -4 136 c-3 122 -5
137 -23 151 -26 19 -81 10 -111 -18 -23 -21 -24 -29 -24 -146 l0 -123 -25 0
-25 0 0 165 c0 158 1 165 20 165 15 0 20 -7 20 -25z m1350 -120 l0 -145 50 0
c43 0 50 -3 50 -20 0 -19 -7 -20 -130 -20 -123 0 -130 1 -130 20 0 18 7 20 55
20 l55 0 0 125 0 125 -55 0 c-48 0 -55 2 -55 20 0 18 7 20 80 20 l80 0 0 -145z
m680 125 c0 -11 2 -20 5 -20 3 0 22 9 42 20 54 29 117 27 148 -5 24 -23 25
-29 25 -165 l0 -140 -25 0 -25 0 0 132 c0 108 -3 135 -17 150 -22 25 -63 23
-104 -5 l-34 -23 -3 -127 -3 -127 -24 0 -25 0 0 165 c0 158 1 165 20 165 13 0
20 -7 20 -20z m-686 -435 c9 -26 -5 -45 -34 -45 -29 0 -43 19 -34 45 4 8 18
15 34 15 16 0 30 -7 34 -15z m-1910 -15 c19 -19 -6 -30 -53 -24 -48 6 -87 -5
-103 -30 -4 -6 -8 -30 -8 -53 l0 -43 61 0 c52 0 60 -2 57 -17 -2 -14 -15 -19
-61 -21 l-57 -3 0 -129 0 -130 -25 0 -25 0 0 129 0 130 -42 3 c-31 2 -44 8
-46 21 -3 14 4 17 42 17 l46 0 0 49 c0 57 25 96 73 110 35 11 127 5 141 -9z
m1297 -70 c16 -9 19 -22 19 -83 l0 -72 -40 0 -40 0 0 72 c0 58 3 74 18 82 21
13 20 13 43 1z m-921 -215 c0 -158 -1 -165 -20 -165 -11 0 -20 7 -20 15 0 19
-3 19 -47 -5 -54 -29 -117 -27 -148 5 -24 23 -25 29 -25 165 l0 140 25 0 25 0
0 -129 c0 -108 3 -132 17 -146 22 -23 87 -14 119 16 23 21 24 29 24 146 l0
123 25 0 25 0 0 -165z m190 140 l0 -24 36 24 c47 32 124 35 153 6 26 -26 35
-79 27 -149 -16 -149 -19 -162 -31 -162 -10 0 -14 33 -17 136 -3 121 -5 137
-22 150 -28 20 -58 17 -97 -9 l-34 -23 -3 -127 -3 -127 -29 0 -30 0 0 158 c0
87 3 162 7 165 3 4 15 7 25 7 12 0 18 -7 18 -25z m1350 -120 l0 -145 50 0 c43
0 50 -3 50 -20 0 -19 -7 -20 -115 -20 -108 0 -115 1 -115 20 0 17 7 20 40 20
l40 0 0 125 0 125 -55 0 c-48 0 -55 2 -55 20 0 18 7 20 80 20 l80 0 0 -145z
m448 125 c43 -26 62 -74 62 -153 0 -50 -5 -72 -23 -98 -32 -49 -81 -71 -139
-65 -92 10 -131 59 -132 166 0 77 19 121 67 150 43 27 121 26 165 0z m232 0
c0 -11 2 -20 5 -20 3 0 22 9 42 20 54 29 117 27 148 -5 24 -23 25 -29 25 -165
l0 -140 -25 0 -25 0 0 133 c0 120 -2 136 -20 152 -25 23 -78 14 -114 -20 -25
-23 -26 -27 -26 -145 l0 -120 -25 0 -25 0 0 165 c0 158 1 165 20 165 13 0 20
-7 20 -20z m-1232 -222 l72 -61 0 -67 c0 -75 -9 -90 -57 -90 -21 0 -31 -4 -29
-12 3 -7 7 -25 10 -40 l6 -28 -90 0 -90 0 6 28 c3 15 7 33 10 40 2 8 -8 12
-29 12 -18 0 -38 5 -45 12 -13 13 -16 126 -4 146 16 24 137 121 152 121 8 1
48 -27 88 -61z m548 -170 c6 -20 -15 -48 -36 -48 -3 0 -14 6 -24 13 -28 21
-13 57 24 57 21 0 31 -6 36 -22z m-1931 2 c46 -18 24 -35 -44 -35 -54 0 -65
-3 -82 -24 -11 -14 -19 -39 -19 -62 l0 -39 60 0 c47 0 60 -3 60 -15 0 -12 -13
-15 -60 -15 l-60 0 0 -135 0 -135 -25 0 -24 0 -3 133 -3 132 -42 3 c-29 2 -43
8 -43 18 0 10 12 14 45 14 l45 0 0 46 c0 25 5 54 11 65 26 50 118 74 184 49z
m725 -124 c0 -21 -17 -36 -40 -36 -16 0 -42 -11 -59 -26 l-31 -26 0 -124 0
-124 -30 0 -30 0 0 165 0 165 25 0 c19 0 25 -5 25 -21 0 -21 1 -21 27 -4 37
25 113 45 113 31z m1660 -25 c44 -32 61 -74 61 -146 0 -73 -17 -114 -64 -149
-36 -27 -119 -28 -163 -2 -111 66 -90 278 32 316 39 12 104 3 134 -19z m396
19 c49 -19 53 -34 54 -187 l0 -143 -25 0 -25 0 0 134 c0 109 -3 138 -16 150
-22 23 -66 20 -105 -7 l-34 -23 -3 -127 -3 -127 -24 0 -25 0 0 165 c0 158 1
165 20 165 13 0 20 -7 20 -20 0 -11 1 -20 3 -20 1 0 24 11 51 25 55 28 72 30
112 15z m-2596 -135 c0 -132 0 -135 25 -151 29 -19 72 -12 110 17 24 20 25 23
25 145 l0 124 25 0 25 0 0 -165 c0 -155 -1 -165 -19 -165 -11 0 -21 9 -24 21
-6 21 -6 21 -37 -3 -24 -17 -45 -23 -87 -23 -86 0 -93 13 -93 191 l0 144 25 0
25 0 0 -135z m1750 -10 l0 -145 50 0 c43 0 50 -3 50 -20 0 -18 -7 -20 -52 -20
-37 1 -60 6 -75 19 -22 18 -23 27 -23 139 0 67 -4 132 -10 146 -9 25 -8 26 25
26 l35 0 0 -145z m-412 53 c7 -7 12 -37 12 -68 0 -31 -5 -61 -12 -68 -17 -17
-439 -17 -456 0 -7 7 -12 37 -12 68 0 31 5 61 12 68 17 17 439 17 456 0z m-58
-270 c6 -24 24 -86 39 -138 l28 -95 89 -3 c48 -2 94 -8 101 -14 15 -12 18
-105 3 -128 -5 -8 -31 -17 -59 -20 l-51 -5 25 -53 c14 -30 25 -56 25 -58 0 -2
-65 -4 -145 -4 l-145 0 0 -40 0 -40 168 0 168 0 17 -35 c9 -20 17 -38 17 -40
0 -3 -83 -5 -185 -5 l-185 0 0 -40 0 -40 213 0 212 0 22 -39 c45 -79 151 -208
247 -303 l100 -98 -133 0 -132 0 -87 88 c-137 138 -299 231 -404 232 l-38 0 0
-160 0 -160 -80 0 -80 0 0 160 0 160 -37 0 c-106 -1 -268 -94 -405 -232 l-87
-88 -132 0 -133 0 100 98 c96 95 202 224 247 303 l22 39 213 0 212 0 0 40 0
40 -185 0 c-102 0 -185 2 -185 5 0 2 8 20 17 40 l17 35 168 0 168 0 0 40 0 40
-145 0 c-80 0 -145 2 -145 4 0 2 11 29 25 60 l25 56 -44 0 c-27 0 -51 6 -60
16 -20 19 -22 117 -3 132 7 6 53 12 101 14 l89 3 28 95 c15 52 33 114 39 138
l11 42 159 0 159 0 11 -42z m-1444 -51 c2 -2 2 -11 -1 -19 -4 -11 -19 -13 -64
-10 -76 5 -101 -15 -101 -83 l0 -45 60 0 c47 0 60 -3 60 -15 0 -12 -13 -15
-60 -15 l-60 0 0 -135 0 -135 -25 0 -25 0 0 135 0 135 -45 0 c-33 0 -45 4 -45
15 0 11 12 15 45 15 l45 0 0 48 c0 86 52 126 153 118 32 -2 61 -6 63 -9z
m2344 -135 c55 -27 80 -74 80 -149 0 -114 -52 -173 -152 -173 -89 0 -141 61
-142 165 0 82 25 132 78 156 52 23 91 24 136 1z m-2180 -126 c0 -128 1 -136
22 -150 31 -22 59 -20 99 7 l34 23 3 127 3 127 24 0 25 0 0 -165 c0 -158 -1
-165 -20 -165 -13 0 -20 7 -20 20 0 25 -5 25 -37 0 -49 -38 -125 -38 -163 0
-18 18 -20 34 -20 165 l0 145 25 0 25 0 0 -134z m2430 114 c0 -25 2 -25 42 0
22 13 51 20 85 20 44 0 55 -4 72 -26 19 -24 21 -40 21 -165 l0 -139 -25 0 -25
0 0 134 c0 109 -3 138 -16 150 -22 23 -66 20 -105 -7 l-34 -23 -3 -127 -3
-127 -24 0 -25 0 0 165 c0 158 1 165 20 165 13 0 20 -7 20 -20z m-2635 -380
c29 0 47 -14 40 -31 -4 -12 -19 -14 -64 -11 -74 5 -101 -16 -101 -78 l0 -40
60 0 c53 0 60 -2 60 -20 0 -18 -7 -20 -60 -20 l-60 0 0 -135 0 -135 -25 0 -25
0 0 135 0 135 -45 0 c-38 0 -45 3 -45 20 0 17 7 20 45 20 l45 0 0 49 c0 37 6
57 23 76 23 28 77 46 112 39 11 -2 29 -4 40 -4z m2390 -144 c41 -17 61 -46 75
-110 13 -60 6 -86 -24 -86 -21 0 -24 6 -29 56 -3 30 -13 66 -21 79 -19 28 -77
42 -110 27 -18 -8 -27 -7 -40 6 -15 15 -14 17 6 29 31 17 101 16 143 -1z m447
-16 c15 -19 18 -43 18 -166 l0 -144 -25 0 -25 0 0 131 c0 72 -5 139 -10 150
-16 29 -80 26 -119 -7 -30 -25 -31 -28 -31 -115 0 -49 -3 -89 -6 -89 -3 0 -14
5 -25 10 -17 10 -19 22 -19 130 0 111 1 120 19 120 11 0 21 -9 24 -22 6 -20 7
-21 24 -5 48 43 143 47 175 7z m-2632 -79 c0 -97 0 -99 -25 -103 l-25 -5 0
103 0 104 25 0 c25 0 25 0 25 -99z m210 96 c0 -2 -11 -14 -25 -27 l-25 -23 0
26 c0 22 5 27 25 27 14 0 25 -1 25 -3z m2050 -576 c14 -27 13 -104 -2 -119
-17 -17 -2279 -17 -2296 0 -15 15 -16 92 -2 119 10 19 34 19 1150 19 1116 0
1140 0 1150 -19z"/>
<path d="M2957 3419 c-48 -28 -64 -155 -27 -216 37 -62 135 -50 159 18 15 44
14 113 -4 154 -20 48 -83 70 -128 44z"/>
<path d="M2941 2808 c-26 -27 -35 -74 -29 -140 4 -40 12 -57 32 -75 31 -27 81
-30 113 -8 49 35 57 173 12 221 -30 33 -99 34 -128 2z"/>
<path d="M2959 2285 c-75 -40 -62 -229 16 -249 38 -10 89 10 106 41 18 33 18
142 0 175 -24 45 -75 59 -122 33z"/>
<path d="M2944 1736 c-24 -20 -28 -32 -32 -90 -7 -106 20 -148 95 -148 69 0
107 77 89 177 -15 79 -94 111 -152 61z"/>
</g>
</svg>
